<svg xmlns="http://www.w3.org/2000/svg" version="1.1" xmlns:xlink="http://www.w3.org/1999/xlink" xmlns:svgjs="http://svgjs.dev/svgjs" width="1000" height="143" viewBox="0 0 1000 143"><g transform="matrix(1,0,0,1,-0.6060606060606233,0.035087025464463295)"><svg viewBox="0 0 396 57" data-background-color="#111111" preserveAspectRatio="xMidYMid meet" height="143" width="1000" xmlns="http://www.w3.org/2000/svg" xmlns:xlink="http://www.w3.org/1999/xlink"><g id="tight-bounds" transform="matrix(1,0,0,1,0.2400000000000091,-0.013985737422899547)"><svg viewBox="0 0 395.52 57.027971474845785" height="57.027971474845785" width="395.52"><g><svg viewBox="0 0 599.2408209135941 86.40141697416975" height="57.027971474845785" width="395.52"><g transform="matrix(1,0,0,1,203.7208209135941,0)"><svg viewBox="0 0 395.52 86.40141697416975" height="86.40141697416975" width="395.52"><g id="textblocktransform"><svg viewBox="0 0 395.52 86.40141697416975" height="86.40141697416975" width="395.52" id="textblock"><g><svg viewBox="0 0 395.52 86.40141697416975" height="86.40141697416975" width="395.52"><g transform="matrix(1,0,0,1,0,0)"><svg width="395.52" viewBox="2.25 -35.45 203.24 44.400000000000006" height="86.40141697416975" data-palette-color="#00b8a9"><path d="M3.55-35L21.2-35Q22.05-35 22.05-30.58 22.05-26.15 21.2-26.15L21.2-26.15 12.05-26.15 12.05-20.45 18.15-20.45Q19-20.45 19-16.57 19-12.7 18.2-12.7L18.2-12.7 12.05-12.7 12.05-0.65Q12.05 0.05 10.18 0.28 8.3 0.5 7.05 0.5L7.05 0.5 4.7 0.4Q2.25 0.1 2.25-0.6L2.25-0.6 2.25-33.7Q2.25-34.5 2.58-34.75 2.9-35 3.55-35L3.55-35ZM42.45-11.4L42.45-34Q42.45-35 47.87-35 53.3-35 53.3-34L53.3-34 53.3-11.05Q53.3-5.95 49.65-2.73 46 0.5 39.57 0.5 33.15 0.5 29.12-2.83 25.1-6.15 25.1-11.8L25.1-11.8 25.1-33.95Q25.1-34.95 30.52-34.95 35.95-34.95 35.95-33.95L35.95-33.95 35.95-11.4Q35.95-10.4 37-9.8L37-9.8Q38.1-9.2 39.3-9.2 40.5-9.2 41.47-9.75 42.45-10.3 42.45-11.4L42.45-11.4ZM84.9-34.05L84.9-1.1Q84.9-0.05 80.2-0.05 75.5-0.05 75.09-0.8L75.09-0.8 66.75-16.4 66.75-0.85Q66.75 0.05 62.12 0.05 57.5 0.05 57.5-0.85L57.5-0.85 57.5-34.3Q57.5-35.05 61.45-35.05L61.45-35.05Q63-35.05 65.07-34.77 67.15-34.5 67.59-33.75L67.59-33.75 75.59-18.35 75.59-34.05Q75.59-35 80.25-35 84.9-35 84.9-34.05L84.9-34.05ZM89.89-2.3L89.89-2.3 89.89-32.3Q89.89-33.55 90.52-34.27 91.14-35 92.14-35L92.14-35 100.49-35Q108.44-35 112.57-31 116.69-27 116.69-18.4L116.69-18.4Q116.69 0 100.99 0L100.99 0 92.44 0Q89.89 0 89.89-2.3ZM99.99-25.5L99.49-25.5 99.49-10.55Q99.49-9.5 99.64-9.22 99.79-8.95 100.54-8.95L100.54-8.95Q103.29-8.95 104.72-11 106.14-13.05 106.14-17.82 106.14-22.6 104.67-24.05 103.19-25.5 99.99-25.5L99.99-25.5ZM137.04-11.4L137.04-34Q137.04-35 142.47-35 147.89-35 147.89-34L147.89-34 147.89-11.05Q147.89-5.95 144.24-2.73 140.59 0.5 134.17 0.5 127.74 0.5 123.72-2.83 119.69-6.15 119.69-11.8L119.69-11.8 119.69-33.95Q119.69-34.95 125.12-34.95 130.54-34.95 130.54-33.95L130.54-33.95 130.54-11.4Q130.54-10.4 131.59-9.8L131.59-9.8Q132.69-9.2 133.89-9.2 135.09-9.2 136.06-9.75 137.04-10.3 137.04-11.4L137.04-11.4ZM151.09-17.45L151.09-17.45Q151.09-26.35 155.56-30.9 160.04-35.45 167.11-35.45 174.19-35.45 178.54-30.98 182.89-26.5 182.89-17.45L182.89-17.45Q182.89-10.5 180.19-6.25 177.49-2 172.79-0.4L172.79-0.4 178.09 3.25Q178.39 3.45 178.39 3.98 178.39 4.5 177.26 5.95 176.14 7.4 174.56 8.18 172.99 8.95 172.19 8.95 171.39 8.95 170.89 8.4L170.89 8.4 163.59 0.3Q157.99-0.75 154.54-5.33 151.09-9.9 151.09-17.45ZM166.99-25.85Q164.59-25.85 162.96-23.65 161.34-21.45 161.34-17.48 161.34-13.5 162.89-11.38 164.44-9.25 166.96-9.25 169.49-9.25 171.06-11.4 172.64-13.55 172.64-17.55 172.64-21.55 171.01-23.7 169.39-25.85 166.99-25.85ZM187.24-8.6L190.69-8.6 190.69-26.4 187.14-26.4Q186.29-26.4 185.94-28.55L185.94-28.55Q185.79-29.6 185.79-30.7 185.79-31.8 185.94-32.85L185.94-32.85Q186.29-35 187.14-35L187.14-35 203.94-35Q204.79-35 205.09-32.85L205.09-32.85Q205.29-31.8 205.29-30.7 205.29-29.6 205.09-28.55L205.09-28.55Q204.79-26.4 203.94-26.4L203.94-26.4 200.59-26.4 200.59-8.6 204.09-8.6Q204.94-8.6 205.29-6.45L205.29-6.45Q205.49-5.4 205.49-4.3 205.49-3.2 205.29-2.15L205.29-2.15Q204.94 0 204.09 0L204.09 0 187.24 0Q186.39 0 186.09-2.15L186.09-2.15Q185.89-3.2 185.89-4.3 185.89-5.4 186.09-6.45L186.09-6.45Q186.39-8.6 187.24-8.6L187.24-8.6Z" opacity="1" transform="matrix(1,0,0,1,0,0)" fill="#00b8a9" class="wordmark-text-0" data-fill-palette-color="primary" id="text-0"></path></svg></g></svg></g></svg></g></svg></g><g transform="matrix(1,0,0,1,0,2.0557640287003522)"><svg viewBox="0 0 183.32352 82.28988891676904" height="82.28988891676904" width="183.32352"><g><svg xmlns="http://www.w3.org/2000/svg" xmlns:xlink="http://www.w3.org/1999/xlink" version="1.0" x="0" y="0" viewBox="3.611 29.177 92.778 41.645999999999994" enable-background="new 0 0 100 100" xml:space="preserve" height="82.28988891676904" width="183.32352" class="icon-icon-0" data-fill-palette-color="accent" id="icon-0"><polygon fill="#b1f93c" points="89.357,67.1 96.389,67.519 96.389,70.823 89.357,70.793 " data-fill-palette-color="accent"></polygon><polygon fill="#b1f93c" points="75.304,66.344 3.611,68.286 3.611,70.723 75.304,70.823 75.304,70.736 85.386,70.778 85.386,66.862   75.304,66.264 " data-fill-palette-color="accent"></polygon><polygon fill="#b1f93c" points="87.471,29.177 75.304,30.914 75.304,30.956 3.611,49.028 3.611,51.465 75.304,35.435 75.304,35.389   96.389,44.709 96.389,41.402 " data-fill-palette-color="accent"></polygon><path fill="#b1f93c" d="M75.304 37.353l21.085 8.807v19.989l-7.031-0.58v-3.784l-3.972-0.554v4.01l-10.082-0.83v0.078L3.611 67.276v-14.74l71.692-15.135V37.353zM5.721 61.104l-1.188 0.129v2.283l1.188-0.099V61.104zM5.721 57.326l-1.188 0.183v2.281l1.188-0.147V57.326zM5.721 53.552l-1.188 0.23v2.282l1.188-0.199V53.552zM7.919 60.864l-1.251 0.137v2.339l1.251-0.103V60.864zM7.919 56.995l-1.251 0.188v2.341l1.251-0.158V56.995zM7.919 53.123l-1.251 0.243v2.34l1.251-0.21V53.123zM10.229 60.616l-1.313 0.141v2.399l1.313-0.106V60.616zM10.229 56.645l-1.313 0.199v2.396l1.313-0.163V56.645zM10.229 52.674L8.916 52.93v2.399l1.313-0.222V52.674zM12.663 60.352l-1.384 0.151v2.46l1.384-0.114V60.352zM12.663 56.276l-1.384 0.209v2.464l1.384-0.175V56.276zM12.663 52.202l-1.384 0.27v2.459l1.384-0.23V52.202zM15.229 60.074l-1.461 0.157v2.526l1.461-0.117V60.074zM15.229 55.888l-1.461 0.222v2.524l1.461-0.182V55.888zM15.229 51.702l-1.461 0.284v2.528l1.461-0.247V51.702zM17.935 59.78l-1.542 0.167v2.597l1.542-0.127V59.78zM17.935 55.477l-1.542 0.235v2.597l1.542-0.193V55.477zM17.935 51.175l-1.542 0.302v2.594l1.542-0.258V51.175zM20.798 59.47l-1.632 0.177v2.67l1.632-0.135V59.47zM20.798 55.045l-1.632 0.246v2.669l1.632-0.203V55.045zM20.798 50.62l-1.632 0.316v2.668l1.632-0.272V50.62zM23.794 59.146l-1.729 0.188v2.746l1.729-0.144V59.146zM23.794 54.59l-1.729 0.262V57.6l1.729-0.216V54.59zM23.794 50.038l-1.729 0.336v2.745l1.729-0.292V50.038zM26.967 58.801l-1.831 0.201v2.823l1.831-0.147V58.801zM26.967 54.112l-1.831 0.276v2.826l1.831-0.229V54.112zM26.967 49.42l-1.831 0.356v2.827l1.831-0.309V49.42zM30.336 58.438l-1.944 0.212v2.911l1.944-0.159V58.438zM30.336 53.601l-1.944 0.296v2.911l1.944-0.243V53.601zM30.336 48.765l-1.944 0.379v2.911l1.944-0.326V48.765zM33.922 58.049l-2.069 0.226v3.002l2.069-0.169V58.049zM33.922 53.059l-2.069 0.312v3.004l2.069-0.258V53.059zM33.922 48.067l-2.069 0.403v3.004l2.069-0.349V48.067zM37.742 57.634l-2.206 0.238v3.103l2.206-0.18V57.634zM37.742 52.479l-2.206 0.334v3.103l2.206-0.277V52.479zM37.742 47.324l-2.206 0.429v3.102l2.206-0.369V47.324zM41.764 57.197l-2.357 0.258v3.203l2.357-0.193V57.197zM41.764 51.87l-2.357 0.358v3.203l2.357-0.296V51.87zM41.764 46.544l-2.357 0.458v3.203l2.357-0.396V46.544zM46.064 56.733l-2.522 0.272v3.313l2.522-0.207V56.733zM46.064 51.221l-2.522 0.381v3.312l2.522-0.316V51.221zM46.064 45.706l-2.522 0.492v3.313l2.522-0.425V45.706zM50.675 56.235l-2.707 0.291v3.431l2.707-0.224V56.235zM50.675 50.523l-2.707 0.409v3.428l2.707-0.339V50.523zM50.675 44.812l-2.707 0.526v3.429l2.707-0.455V44.812zM55.627 55.696l-2.909 0.315v3.555l2.909-0.238V55.696zM55.627 49.772l-2.909 0.44v3.555l2.909-0.364V49.772zM55.627 43.849l-2.909 0.564v3.556l2.909-0.489V43.849zM60.965 55.121l-3.136 0.337v3.689l3.136-0.256V55.121zM60.965 48.964l-3.136 0.476v3.689l3.136-0.393V48.964zM60.965 42.811l-3.136 0.609v3.688l3.136-0.527V42.811zM66.733 54.495l-3.392 0.368v3.831l3.392-0.276V54.495zM66.733 48.09l-3.392 0.516v3.834l3.392-0.425V48.09zM66.733 41.688l-3.392 0.659v3.836l3.392-0.572V41.688zM72.987 53.816l-3.678 0.398v3.993l3.678-0.302V53.816zM72.987 47.145l-3.678 0.557v3.993l3.678-0.463V47.145zM72.987 40.472l-3.678 0.716v3.991l3.678-0.617V40.472zM94.592 50.558l1.13 0.375v-3.097l-1.13-0.436V50.558zM94.592 55.704l1.13 0.282V52.89l-1.13-0.341V55.704zM94.592 60.852l1.13 0.189v-3.097l-1.13-0.246V60.852zM92.532 49.867l1.207 0.406v-3.199l-1.207-0.466V49.867zM92.532 55.188l1.207 0.304v-3.199l-1.207-0.365V55.188zM92.532 60.511l1.207 0.2v-3.198l-1.207-0.264V60.511zM90.328 49.132l1.292 0.433v-3.309l-1.292-0.497V49.132zM90.328 54.64l1.292 0.321v-3.309l-1.292-0.389V54.64zM90.328 60.143l1.292 0.216V57.05l-1.292-0.28V60.143zM87.967 48.344l1.387 0.463v-3.423l-1.387-0.534V48.344zM87.967 54.048l1.387 0.345v-3.422l-1.387-0.417V54.048zM87.967 59.75l1.387 0.229v-3.423l-1.387-0.301V59.75zM85.431 47.499l1.49 0.496v-3.548l-1.49-0.576V47.499zM85.431 53.415l1.49 0.371v-3.549l-1.49-0.449V53.415zM85.431 59.328l1.49 0.25v-3.552l-1.49-0.322V59.328zM82.696 46.585l1.605 0.535v-3.681l-1.605-0.622V46.585zM82.696 52.729l1.605 0.402v-3.684l-1.605-0.483V52.729zM82.696 58.873l1.605 0.269v-3.684l-1.605-0.349V58.873zM79.742 45.6l1.735 0.58v-3.83l-1.735-0.669V45.6zM79.742 51.99l1.735 0.436v-3.83l-1.735-0.522V51.99zM79.742 58.384l1.735 0.288v-3.828l-1.735-0.379V58.384zM76.539 44.531l1.884 0.627v-3.985l-1.884-0.724V44.531zM76.539 51.19l1.884 0.47v-3.983l-1.884-0.568V51.19zM76.539 57.85l1.884 0.314v-3.985l-1.884-0.411V57.85z" data-fill-palette-color="accent"></path></svg></g></svg></g></svg></g><defs></defs></svg><rect width="395.52" height="57.027971474845785" fill="none" stroke="none" visibility="hidden"></rect></g></svg></g></svg>